# xmcd
#
# Track frame offsets:
#       150
#       16532
#       31579
#       46767
#       58725
#       81447
#       97631
#       114010
#       128604
#       144323
#       156197
#       167897
#       179233
#       192558
#
# Disc length: 2693 seconds
#
# Revision: 0
# Processed by: cddbd v1.5.2PL0 Copyright (c) Steve Scherf et al.
# Submitted via: WaveLab 4.01
#
DISCID=a70a830e
DTITLE=João Barbosa - O Tesouro Escondido
DYEAR=1900
DGENRE=
TTITLE0=DINHEIRO NÃO É TUDO
TTITLE1=O PROGRESSO DO BRASIL
TTITLE2=O TESOURO ESCONDIDO
TTITLE3=A FORÇA DO TRABALHO
TTITLE4=AMOR
TTITLE5=SUBLIMANDO A DOR
TTITLE6=ORAÇÃO DO AGROPAZ
TTITLE7=EXEMPLO DE AMOR
TTITLE8=NA VELOCIDADE DOS TEMPOS FINAIS
TTITLE9=BELEZAS NATURAIS
TTITLE10=BELEZAS NATURAIS
TTITLE11=FELICIDADE
TTITLE12=AMAZONAS
TTITLE13=QUANTA SAUDADE DE LÁ
EXTD=
EXTT0=
EXTT1=
EXTT2=
EXTT3=
EXTT4=
EXTT5=
EXTT6=
EXTT7=
EXTT8=
EXTT9=
EXTT10=
EXTT11=
EXTT12=
EXTT13=
PLAYORDER=
